<mxfile host="65bd71144e">
    <diagram id="Kpeu8obyevFVTkzu1SUB" name="Page-1">
        <mxGraphModel dx="444" dy="370" grid="1" gridSize="10" guides="1" tooltips="1" connect="1" arrows="1" fold="1" page="1" pageScale="1" pageWidth="850" pageHeight="1100" math="0" shadow="0">
            <root>
                <mxCell id="0"/>
                <mxCell id="1" parent="0"/>
                <mxCell id="S0dcs7mR_e4deKqwH3lD-1" value="Actor" style="shape=umlActor;verticalLabelPosition=bottom;verticalAlign=top;html=1;outlineConnect=0;" parent="1" vertex="1">
                    <mxGeometry x="210" y="160" width="30" height="60" as="geometry"/>
                </mxCell>
                <mxCell id="S0dcs7mR_e4deKqwH3lD-2" value="use case" style="ellipse;whiteSpace=wrap;html=1;" parent="1" vertex="1">
                    <mxGeometry x="320" y="150" width="120" height="80" as="geometry"/>
                </mxCell>
                <mxCell id="S0dcs7mR_e4deKqwH3lD-3" value="Actor" style="shape=umlActor;verticalLabelPosition=bottom;verticalAlign=top;html=1;outlineConnect=0;" parent="1" vertex="1">
                    <mxGeometry x="560" y="160" width="30" height="60" as="geometry"/>
                </mxCell>
            </root>
        </mxGraphModel>
    </diagram>
</mxfile>